<?xml version="1.0" encoding="UTF-8"?>
<svg width="67px" height="81px" viewBox="0 0 67 81" version="1.1" xmlns="http://www.w3.org/2000/svg" xmlns:xlink="http://www.w3.org/1999/xlink">
    <!-- Generator: Sketch 52.5 (67469) - http://www.bohemiancoding.com/sketch -->
    <title>Artboard Copy 8</title>
    <desc>Created with Sketch.</desc>
    <g id="Artboard-Copy-8" stroke="none" stroke-width="1" fill="none" fill-rule="evenodd">
        <rect id="Rectangle" fill-opacity="0.8" fill="#141E8C" fill-rule="nonzero" x="5" y="5" width="16" height="48"></rect>
        <circle id="Oval" fill-opacity="0.8" fill="#141E8C" fill-rule="nonzero" cx="21" cy="21" r="16"></circle>
        <g id="Group-3" transform="translate(5.000000, 55.000000)" fill="#141E8C">
            <g id="Group">
                <path d="M1.58992347,5.12834821 L1.58992347,8.2421875 L0.212372449,8.2421875 L0.212372449,0.1171875 L3.00765306,0.1171875 C3.42474698,0.120907757 3.81026609,0.181361021 4.16422194,0.298549107 C4.51817779,0.415737193 4.82334055,0.583146233 5.07971939,0.80078125 C5.33609822,1.01841627 5.53603245,1.28255053 5.67952806,1.59319196 C5.82302368,1.9038334 5.89477041,2.25446233 5.89477041,2.64508929 C5.89477041,3.02455547 5.82302368,3.36681395 5.67952806,3.671875 C5.53603245,3.97693605 5.33609822,4.23735011 5.07971939,4.453125 C4.82334055,4.66889989 4.51817779,4.83444883 4.16422194,4.94977679 C3.81026609,5.06510474 3.42474698,5.12462796 3.00765306,5.12834821 L1.58992347,5.12834821 Z M1.58992347,4.04575893 L3.00765306,4.04575893 C3.2410726,4.04575893 3.44961643,4.01134707 3.63329082,3.94252232 C3.8169652,3.87369757 3.97385139,3.7779024 4.10395408,3.65513393 C4.23405677,3.53236546 4.33354557,3.38541752 4.40242347,3.21428571 C4.47130136,3.04315391 4.5057398,2.85714386 4.5057398,2.65625 C4.5057398,2.44419537 4.47130136,2.24888482 4.40242347,2.0703125 C4.33354557,1.89174018 4.23405677,1.73828189 4.10395408,1.60993304 C3.97385139,1.48158418 3.8169652,1.38206881 3.63329082,1.31138393 C3.44961643,1.24069905 3.2410726,1.20349704 3.00765306,1.19977679 L1.58992347,1.19977679 L1.58992347,4.04575893 Z" id="Combined-Shape"></path>
                <path d="M9.96428571,5.07254464 L8.56377551,5.07254464 L8.56377551,8.2421875 L7.18622449,8.2421875 L7.18622449,0.1171875 L9.82653061,0.1171875 C10.2551042,0.120907757 10.6501895,0.173920619 11.0117985,0.276227679 C11.3734074,0.378534738 11.6862232,0.531062974 11.9502551,0.733816964 C12.214287,0.936570954 12.4190044,1.19047467 12.5644133,1.49553571 C12.7098222,1.80059676 12.7825255,2.15773605 12.7825255,2.56696429 C12.7825255,2.84226328 12.7452172,3.09244679 12.6705995,3.31752232 C12.5959818,3.54259785 12.4917099,3.74627885 12.3577806,3.92857143 C12.2238514,4.11086401 12.0631387,4.27083265 11.8756378,4.40848214 C11.6881368,4.54613164 11.4815062,4.66331797 11.2557398,4.76004464 L13.0235969,8.17522321 L13.0235969,8.2421875 L11.5542092,8.2421875 L9.96428571,5.07254464 Z M8.56377551,3.98995536 L9.83227041,3.98995536 C10.0618634,3.98995536 10.2723205,3.95833365 10.463648,3.89508929 C10.6549754,3.83184492 10.8204712,3.74163005 10.9601403,3.62444196 C11.0998094,3.50725388 11.2079078,3.36402614 11.2844388,3.19475446 C11.3609698,3.02548278 11.3992347,2.83110229 11.3992347,2.61160714 C11.3992347,2.38467148 11.362883,2.18378064 11.2901786,2.00892857 C11.2174741,1.83407651 11.1132022,1.68712857 10.9773597,1.56808036 C10.8415172,1.44903214 10.6760214,1.35881727 10.4808673,1.29743304 C10.2857133,1.2360488 10.0676032,1.20349704 9.82653061,1.19977679 L8.56377551,1.19977679 L8.56377551,3.98995536 Z" id="Combined-Shape"></path>
                <polygon id="Path" points="19.1135204 4.59821429 15.6753827 4.59821429 15.6753827 7.1484375 19.6989796 7.1484375 19.6989796 8.2421875 14.2920918 8.2421875 14.2920918 0.1171875 19.658801 0.1171875 19.658801 1.22209821 15.6753827 1.22209821 15.6753827 3.515625 19.1135204 3.515625"></polygon>
                <path d="M26.9139031,5.74776786 C26.8756376,6.13839481 26.7799753,6.49460405 26.6269133,6.81640625 C26.4738513,7.13820845 26.2710472,7.41350332 26.0184949,7.64229911 C25.7659426,7.87109489 25.4684328,8.04780444 25.1259566,8.17243304 C24.7834804,8.29706164 24.4017878,8.359375 23.9808673,8.359375 C23.4719362,8.359375 23.0280631,8.26357983 22.6492347,8.07198661 C22.2704063,7.88039339 21.9547207,7.62090937 21.7021684,7.29352679 C21.4496161,6.9661442 21.2602047,6.5829635 21.1339286,6.14397321 C21.0076524,5.70498292 20.9426021,5.23623761 20.9387755,4.73772321 L20.9387755,3.62723214 C20.9426021,3.132438 21.0095657,2.66462274 21.1396684,2.22377232 C21.2697711,1.7829219 21.4620523,1.39788111 21.7165179,1.06863839 C21.9709834,0.739395675 22.2876257,0.478981613 22.6664541,0.287388393 C23.0452825,0.095795173 23.4853291,0 23.9866071,0 C24.4266604,0 24.8188758,0.0632434152 25.1632653,0.189732143 C25.5076548,0.316220871 25.8022947,0.494790513 26.0471939,0.725446429 C26.2920931,0.956102344 26.4872442,1.23697751 26.6326531,1.56808036 C26.778062,1.8991832 26.871811,2.26748309 26.9139031,2.67299107 L25.536352,2.67299107 C25.5133927,2.43489464 25.4665182,2.21819294 25.395727,2.02287946 C25.3249359,1.82756599 25.2283169,1.66015695 25.1058673,1.52064732 C24.9834178,1.3811377 24.8294014,1.27418192 24.6438138,1.19977679 C24.4582261,1.12537165 24.2391594,1.08816964 23.9866071,1.08816964 C23.6766566,1.08816964 23.4164551,1.15699336 23.2059949,1.29464286 C22.9955347,1.43229235 22.8252558,1.61737235 22.6951531,1.84988839 C22.5650504,2.08240444 22.4722579,2.35118895 22.416773,2.65625 C22.361288,2.96131105 22.3335459,3.28124833 22.3335459,3.61607143 L22.3335459,4.73772321 C22.3335459,5.08742734 22.361288,5.41573507 22.416773,5.72265625 C22.4722579,6.02957743 22.5631371,6.29836194 22.6894133,6.52901786 C22.8156894,6.75967377 22.9840551,6.94196362 23.1945153,7.07589286 C23.4049755,7.2098221 23.6670903,7.27678571 23.9808673,7.27678571 C24.4630126,7.27678571 24.8303559,7.14378853 25.0829082,6.87779018 C25.3354604,6.61179182 25.4846936,6.23512148 25.5306122,5.74776786 L26.9139031,5.74776786 Z" id="Path"></path>
                <polygon id="Path" points="28.5095663 0.1171875 33.4802296 0.1171875 33.4802296 1.22767857 31.6721939 1.22767857 31.6721939 7.13727679 33.4802296 7.13727679 33.4802296 8.2421875 28.5095663 8.2421875 28.5095663 7.13727679 30.2774235 7.13727679 30.2774235 1.22767857 28.5095663 1.22767857"></polygon>
                <path d="M39.7193878,6.14955357 C39.7193878,5.95610022 39.678253,5.78590103 39.5959821,5.63895089 C39.5137113,5.49200075 39.3970033,5.36272377 39.2458546,5.25111607 C39.0947059,5.13950837 38.9148607,5.0418531 38.7063138,4.95814732 C38.4977668,4.87444155 38.2710471,4.79724738 38.026148,4.7265625 C37.6970647,4.63355608 37.3727695,4.51822985 37.0532526,4.38058036 C36.7337356,4.24293086 36.448662,4.07459177 36.198023,3.87555804 C35.947384,3.6765243 35.7445799,3.44401175 35.5896046,3.17801339 C35.4346293,2.91201504 35.3571429,2.60416842 35.3571429,2.25446429 C35.3571429,1.90476016 35.4346293,1.59133323 35.5896046,1.31417411 C35.7445799,1.03701498 35.9521671,0.801712277 36.2123724,0.608258929 C36.4725778,0.41480558 36.7748707,0.265997545 37.1192602,0.161830357 C37.4636497,0.0576631696 37.82334,0.00558035714 38.1983418,0.00558035714 C38.6001296,0.00558035714 38.9760824,0.0660336217 39.3262117,0.186941964 C39.676341,0.307850307 39.9824604,0.477119448 40.2445791,0.694754464 C40.5066977,0.912389481 40.7142849,1.17280354 40.8673469,1.47600446 C41.0204089,1.77920539 41.098852,2.11495352 41.1026786,2.48325893 L39.7251276,2.48325893 C39.7059948,2.27864481 39.6610335,2.09170472 39.5902423,1.92243304 C39.5194512,1.75316136 39.4199624,1.60714347 39.291773,1.484375 C39.1635835,1.36160653 39.007654,1.26674141 38.8239796,1.19977679 C38.6403052,1.13281217 38.4279349,1.09933036 38.1868622,1.09933036 C37.9802286,1.09933036 37.7889039,1.12537176 37.6128827,1.17745536 C37.4368614,1.22953895 37.2847583,1.30580307 37.1565689,1.40625 C37.0283795,1.50669693 36.927934,1.62760346 36.8552296,1.76897321 C36.7825251,1.91034297 36.7461735,2.07031161 36.7461735,2.24888393 C36.7461735,2.43861702 36.7959179,2.60323591 36.8954082,2.74274554 C36.9948985,2.88225516 37.1249992,3.00409174 37.2857143,3.10825893 C37.4464294,3.21242612 37.6310576,3.30264099 37.8396046,3.37890625 C38.0481516,3.45517151 38.265305,3.52492528 38.4910714,3.58816964 C38.8392875,3.68861657 39.1721923,3.81231325 39.4897959,3.95926339 C39.8073995,4.10621353 40.0867335,4.28292307 40.3278061,4.48939732 C40.5688788,4.69587157 40.7602034,4.93489448 40.9017857,5.20647321 C41.0433681,5.47805195 41.1141582,5.78868873 41.1141582,6.13839286 C41.1141582,6.49925776 41.0357151,6.81733493 40.8788265,7.09263393 C40.721938,7.36793292 40.5114809,7.59858538 40.247449,7.78459821 C39.983417,7.97061105 39.6772977,8.11104863 39.3290816,8.20591518 C38.9808656,8.30078172 38.6173488,8.34821429 38.2385204,8.34821429 C37.9821416,8.34821429 37.7276798,8.32403298 37.4751276,8.27566964 C37.2225753,8.22730631 36.9805496,8.15476239 36.7490434,8.05803571 C36.5175371,7.96130904 36.3022969,7.84133256 36.1033163,7.69810268 C35.9043357,7.5548728 35.731187,7.38932386 35.5838648,7.20145089 C35.4365426,7.01357793 35.3207912,6.80338658 35.2366071,6.57087054 C35.152423,6.33835449 35.1084184,6.08259068 35.1045918,5.80357143 L36.4878827,5.80357143 C36.5070154,6.04910837 36.5624995,6.26301992 36.6543367,6.4453125 C36.7461739,6.62760508 36.8686217,6.77920326 37.0216837,6.90011161 C37.1747457,7.02101995 37.3536342,7.11216487 37.5583546,7.17354911 C37.763075,7.23493334 37.9897947,7.265625 38.2385204,7.265625 C38.4451541,7.265625 38.638392,7.24144369 38.8182398,7.19308036 C38.9980876,7.14471702 39.1549738,7.07310315 39.2889031,6.97823661 C39.4228323,6.88337006 39.5280608,6.76618373 39.6045918,6.62667411 C39.6811228,6.48716448 39.7193878,6.32812589 39.7193878,6.14955357 Z" id="Path"></path>
                <polygon id="Path" points="47.3303571 4.59821429 43.8922194 4.59821429 43.8922194 7.1484375 47.9158163 7.1484375 47.9158163 8.2421875 42.5089286 8.2421875 42.5089286 0.1171875 47.8756378 0.1171875 47.8756378 1.22209821 43.8922194 1.22209821 43.8922194 3.515625 47.3303571 3.515625"></polygon>
            </g>
            <g id="Group-2" transform="translate(-0.000000, 9.047619)">
                <path d="M5.47063415,0.104166667 L5.48196051,5.4723916 C5.47818504,5.88349874 5.41022753,6.25881191 5.27808595,6.59834237 C5.14594436,6.93787282 4.96094892,7.22876347 4.72309408,7.47102304 C4.48523923,7.7132826 4.19736367,7.90048037 3.85945877,8.03262195 C3.52155387,8.16476353 3.1430683,8.23083333 2.72399071,8.23083333 C2.31623954,8.23083333 1.94624866,8.16476353 1.61400697,8.03262195 C1.28176528,7.90048037 0.996721282,7.71420024 0.758866434,7.47377597 C0.521011587,7.2333517 0.336016147,6.94337869 0.203874564,6.60384824 C0.0717329823,6.26431778 0.00377547377,5.88716934 0,5.4723916 L0.0113263647,0.104166667 L1.3478374,0.104166667 L1.35916376,5.4723916 C1.36293924,5.71832177 1.39503028,5.94406025 1.45543786,6.14961382 C1.51584544,6.35516739 1.60268004,6.53227116 1.71594425,6.68093044 C1.82920846,6.82958972 1.96984275,6.94521187 2.13785134,7.02780036 C2.30585992,7.11038885 2.50123776,7.15168248 2.72399071,7.15168248 C2.95051913,7.15168248 3.15061624,7.11038885 3.32428804,7.02780036 C3.49795983,6.94521187 3.64331339,6.82958972 3.76035308,6.68093044 C3.87739276,6.53227116 3.96611507,6.35516739 4.02652265,6.14961382 C4.08693023,5.94406025 4.11902127,5.71832177 4.12279675,5.4723916 L4.13412311,0.104166667 L5.47063415,0.104166667 Z" id="Path"></path>
                <polygon id="Path" points="6.53061224 0.104166667 11.5022951 0.104166667 11.5022951 1.21488553 9.69388854 1.21488553 9.69388854 7.12569597 11.5022951 7.12569597 11.5022951 8.23083333 6.53061224 8.23083333 6.53061224 7.12569597 8.29883203 7.12569597 8.29883203 1.21488553 6.53061224 1.21488553"></polygon>
            </g>
        </g>
    </g>
</svg>